# This file uses centimeters as units for non-parametric coordinates.

mtllib pizza.mtl
g default
v 19.095647 9.352267 -1.371851
v 17.363187 15.441233 -1.371851
v 14.541379 21.108184 -1.371851
v 10.726318 26.160141 -1.371851
v 6.047922 30.425057 -1.371851
v 0.665508 33.757706 -1.371851
v -5.237634 36.044593 -1.371851
v -11.460477 37.207839 -1.371852
v -15.483876 37.207839 -1.371851
v 19.679767 3.048632 -1.371851
v 19.095647 9.352267 1.371851
v 17.363187 15.441233 1.371851
v 14.541379 21.108184 1.371851
v 10.726318 26.160141 1.371851
v 6.047922 30.425057 1.371851
v 0.665508 33.757706 1.371851
v -5.237634 36.044593 1.371851
v -11.460477 37.207839 1.371851
v -15.483876 37.207839 1.371851
v 19.679767 3.048632 1.371851
v -14.669230 1.571597 -1.371851
v -14.669230 1.571597 1.371851
vt 0.653590 0.127539
vt 0.645699 0.099806
vt 0.632846 0.073995
vt 0.615470 0.050985
vt 0.594162 0.031560
vt 0.569647 0.016381
vt 0.542760 0.005965
vt 0.514417 0.000667
vt 0.459703 0.156583
vt 0.636949 0.234375
vt 0.375000 0.312500
vt 0.382353 0.312500
vt 0.389706 0.312500
vt 0.397059 0.312500
vt 0.404412 0.312500
vt 0.411765 0.312500
vt 0.419118 0.312500
vt 0.426471 0.312500
vt 0.625000 0.312500
vt 0.375000 0.688440
vt 0.382353 0.688440
vt 0.389706 0.688440
vt 0.397059 0.688440
vt 0.404412 0.688440
vt 0.411765 0.688440
vt 0.419118 0.688440
vt 0.426471 0.688440
vt 0.459703 0.843887
vt 0.636949 0.766095
vt 0.625000 0.688440
vt 0.514417 0.999333
vt 0.542760 0.994035
vt 0.569647 0.983619
vt 0.594162 0.968440
vt 0.615470 0.949015
vt 0.632846 0.926005
vt 0.645699 0.900194
vt 0.653590 0.872461
vt 0.500000 0.150000
vt 0.500000 0.837500
vn 0.982973 0.183750 -0.000000
vn 0.932472 0.361242 -0.000000
vn 0.932472 0.361242 -0.000000
vn 0.982973 0.183750 -0.000000
vn 0.850217 0.526432 -0.000000
vn 0.850217 0.526432 -0.000000
vn 0.739009 0.673696 -0.000000
vn 0.739009 0.673696 -0.000000
vn 0.602634 0.798018 -0.000000
vn 0.602634 0.798018 -0.000000
vn 0.445738 0.895163 -0.000000
vn 0.445738 0.895163 -0.000000
vn 0.273662 0.961826 -0.000000
vn 0.273662 0.961826 -0.000000
vn 0.112804 0.993617 -0.000000
vn 0.112804 0.993617 -0.000000
vn 0.000000 1.000000 -0.000000
vn 0.000000 1.000000 -0.000000
vn 0.995734 0.092269 -0.000000
vn 0.995734 0.092269 -0.000000
vn 0.000000 -0.000000 -1.000000
vn 0.000000 0.000000 -1.000000
vn 0.000000 -0.000000 -1.000000
vn 0.000000 -0.000000 -1.000000
vn 0.000000 -0.000000 -1.000000
vn 0.000000 -0.000000 -1.000000
vn 0.000000 -0.000000 -1.000000
vn 0.000000 -0.000000 -1.000000
vn -0.000000 -0.000000 -1.000000
vn -0.000000 -0.000000 -1.000000
vn 0.000000 0.000000 -1.000000
vn 0.000000 0.000000 1.000000
vn 0.000000 0.000000 1.000000
vn 0.000000 0.000000 1.000000
vn 0.000000 0.000000 1.000000
vn 0.000000 0.000000 1.000000
vn 0.000000 0.000000 1.000000
vn 0.000000 0.000000 1.000000
vn 0.000000 0.000000 1.000000
vn 0.000000 0.000000 1.000000
vn 0.000000 0.000000 1.000000
vn 0.000000 0.000000 1.000000
vn -0.999739 -0.022854 0.000000
vn -0.999739 -0.022854 0.000000
vn -0.999739 -0.022854 0.000000
vn -0.999739 -0.022854 0.000000
vn 0.042961 -0.999077 0.000000
vn 0.042961 -0.999077 0.000000
vn 0.042961 -0.999077 0.000000
vn 0.042961 -0.999077 0.000000
s 1
g Pizza
usemtl initialShadingGroup
f 1/11/1 2/12/2 12/21/3 11/20/4
f 2/12/2 3/13/5 13/22/6 12/21/3
f 3/13/5 4/14/7 14/23/8 13/22/6
f 4/14/7 5/15/9 15/24/10 14/23/8
f 5/15/9 6/16/11 16/25/12 15/24/10
f 6/16/11 7/17/13 17/26/14 16/25/12
f 7/17/13 8/18/15 18/27/16 17/26/14
f 8/18/15 9/9/17 19/28/18 18/27/16
f 10/10/19 1/19/1 11/30/4 20/29/20
s 2
f 2/2/21 1/1/22 21/39/23
f 3/3/24 2/2/21 21/39/23
f 4/4/25 3/3/24 21/39/23
f 5/5/26 4/4/25 21/39/23
f 6/6/27 5/5/26 21/39/23
f 7/7/28 6/6/27 21/39/23
f 8/8/29 7/7/28 21/39/23
f 9/9/30 8/8/29 21/39/23
f 1/1/22 10/10/31 21/39/23
s 3
f 11/38/32 12/37/33 22/40/34
f 12/37/33 13/36/35 22/40/34
f 13/36/35 14/35/36 22/40/34
f 14/35/36 15/34/37 22/40/34
f 15/34/37 16/33/38 22/40/34
f 16/33/38 17/32/39 22/40/34
f 17/32/39 18/31/40 22/40/34
f 18/31/40 19/28/41 22/40/34
f 20/29/42 11/38/32 22/40/34
s off
f 9/9/43 21/39/44 22/40/45 19/28/46
f 21/39/47 10/10/48 20/29/49 22/40/50
